<mxfile host="app.diagrams.net" agent="Mozilla/5.0 (X11; Linux x86_64; rv:130.0) Gecko/20100101 Firefox/130.0" version="24.7.14">
  <diagram name="Page-1" id="T6d8X0sFulMxR60aM0VQ">
    <mxGraphModel dx="989" dy="537" grid="1" gridSize="10" guides="1" tooltips="1" connect="1" arrows="1" fold="1" page="1" pageScale="1" pageWidth="850" pageHeight="1100" math="0" shadow="0">
      <root>
        <mxCell id="0" />
        <mxCell id="1" parent="0" />
        <mxCell id="pR2gU65df5QwyOfCK6Qe-1" value="" style="endArrow=classic;html=1;rounded=0;" edge="1" parent="1">
          <mxGeometry width="50" height="50" relative="1" as="geometry">
            <mxPoint x="40" y="40" as="sourcePoint" />
            <mxPoint x="40" y="480" as="targetPoint" />
          </mxGeometry>
        </mxCell>
        <mxCell id="pR2gU65df5QwyOfCK6Qe-2" value="time" style="edgeLabel;html=1;align=center;verticalAlign=middle;resizable=0;points=[];" vertex="1" connectable="0" parent="pR2gU65df5QwyOfCK6Qe-1">
          <mxGeometry x="0.8225" y="-1" relative="1" as="geometry">
            <mxPoint x="21" y="26" as="offset" />
          </mxGeometry>
        </mxCell>
        <mxCell id="pR2gU65df5QwyOfCK6Qe-3" value="" style="endArrow=classic;html=1;rounded=0;" edge="1" parent="1">
          <mxGeometry width="50" height="50" relative="1" as="geometry">
            <mxPoint x="40" y="40" as="sourcePoint" />
            <mxPoint x="280" y="40" as="targetPoint" />
          </mxGeometry>
        </mxCell>
        <mxCell id="pR2gU65df5QwyOfCK6Qe-4" value="depth" style="edgeLabel;html=1;align=center;verticalAlign=middle;resizable=0;points=[];" vertex="1" connectable="0" parent="pR2gU65df5QwyOfCK6Qe-3">
          <mxGeometry x="0.5899" relative="1" as="geometry">
            <mxPoint x="19" y="20" as="offset" />
          </mxGeometry>
        </mxCell>
        <mxCell id="pR2gU65df5QwyOfCK6Qe-5" value="" style="endArrow=classic;html=1;rounded=0;startArrow=oval;startFill=1;fontFamily=Times New Roman;fontSize=10;" edge="1" parent="1">
          <mxGeometry width="50" height="50" relative="1" as="geometry">
            <mxPoint x="80" y="80" as="sourcePoint" />
            <mxPoint x="80" y="120" as="targetPoint" />
          </mxGeometry>
        </mxCell>
        <mxCell id="pR2gU65df5QwyOfCK6Qe-6" value="Event: SpanStart" style="edgeLabel;html=1;align=center;verticalAlign=middle;resizable=0;points=[];fontFamily=Times New Roman;fontSize=10;" vertex="1" connectable="0" parent="pR2gU65df5QwyOfCK6Qe-5">
          <mxGeometry x="-0.3929" relative="1" as="geometry">
            <mxPoint x="44" y="-12" as="offset" />
          </mxGeometry>
        </mxCell>
        <mxCell id="pR2gU65df5QwyOfCK6Qe-7" value="" style="endArrow=classic;html=1;rounded=0;startArrow=oval;startFill=1;fontFamily=Times New Roman;fontSize=10;" edge="1" parent="1">
          <mxGeometry width="50" height="50" relative="1" as="geometry">
            <mxPoint x="80" y="120" as="sourcePoint" />
            <mxPoint x="80" y="160" as="targetPoint" />
          </mxGeometry>
        </mxCell>
        <mxCell id="pR2gU65df5QwyOfCK6Qe-8" value="Event: Log" style="edgeLabel;html=1;align=center;verticalAlign=middle;resizable=0;points=[];fontFamily=Times New Roman;fontSize=10;" vertex="1" connectable="0" parent="pR2gU65df5QwyOfCK6Qe-7">
          <mxGeometry x="-0.3929" relative="1" as="geometry">
            <mxPoint x="32" y="-12" as="offset" />
          </mxGeometry>
        </mxCell>
        <mxCell id="pR2gU65df5QwyOfCK6Qe-9" value="" style="endArrow=classic;html=1;rounded=0;startArrow=oval;startFill=1;fontFamily=Times New Roman;fontSize=10;edgeStyle=orthogonalEdgeStyle;curved=1;" edge="1" parent="1">
          <mxGeometry width="50" height="50" relative="1" as="geometry">
            <mxPoint x="80" y="160" as="sourcePoint" />
            <mxPoint x="120" y="200" as="targetPoint" />
            <Array as="points">
              <mxPoint x="80" y="180" />
              <mxPoint x="120" y="180" />
            </Array>
          </mxGeometry>
        </mxCell>
        <mxCell id="pR2gU65df5QwyOfCK6Qe-10" value="Event: Log" style="edgeLabel;html=1;align=center;verticalAlign=middle;resizable=0;points=[];fontFamily=Times New Roman;fontSize=10;" vertex="1" connectable="0" parent="pR2gU65df5QwyOfCK6Qe-9">
          <mxGeometry x="-0.3929" relative="1" as="geometry">
            <mxPoint x="28" y="-20" as="offset" />
          </mxGeometry>
        </mxCell>
        <mxCell id="pR2gU65df5QwyOfCK6Qe-13" value="" style="endArrow=classic;html=1;rounded=0;startArrow=oval;startFill=1;fontFamily=Times New Roman;fontSize=10;" edge="1" parent="1">
          <mxGeometry width="50" height="50" relative="1" as="geometry">
            <mxPoint x="120" y="200" as="sourcePoint" />
            <mxPoint x="120" y="240" as="targetPoint" />
          </mxGeometry>
        </mxCell>
        <mxCell id="pR2gU65df5QwyOfCK6Qe-14" value="Event: SpanStart" style="edgeLabel;html=1;align=center;verticalAlign=middle;resizable=0;points=[];fontFamily=Times New Roman;fontSize=10;" vertex="1" connectable="0" parent="pR2gU65df5QwyOfCK6Qe-13">
          <mxGeometry x="-0.3929" relative="1" as="geometry">
            <mxPoint x="44" y="-12" as="offset" />
          </mxGeometry>
        </mxCell>
        <mxCell id="pR2gU65df5QwyOfCK6Qe-15" value="" style="endArrow=classic;html=1;rounded=0;startArrow=oval;startFill=1;fontFamily=Times New Roman;fontSize=10;edgeStyle=orthogonalEdgeStyle;curved=1;" edge="1" parent="1">
          <mxGeometry width="50" height="50" relative="1" as="geometry">
            <mxPoint x="120" y="240" as="sourcePoint" />
            <mxPoint x="200" y="280" as="targetPoint" />
            <Array as="points">
              <mxPoint x="120" y="260" />
              <mxPoint x="200" y="260" />
            </Array>
          </mxGeometry>
        </mxCell>
        <mxCell id="pR2gU65df5QwyOfCK6Qe-16" value="Event: Log" style="edgeLabel;html=1;align=center;verticalAlign=middle;resizable=0;points=[];fontFamily=Times New Roman;fontSize=10;" vertex="1" connectable="0" parent="pR2gU65df5QwyOfCK6Qe-15">
          <mxGeometry x="-0.3929" relative="1" as="geometry">
            <mxPoint x="16" y="-20" as="offset" />
          </mxGeometry>
        </mxCell>
        <mxCell id="pR2gU65df5QwyOfCK6Qe-17" value="" style="endArrow=classic;html=1;rounded=0;startArrow=oval;startFill=1;fontFamily=Times New Roman;fontSize=10;" edge="1" parent="1">
          <mxGeometry width="50" height="50" relative="1" as="geometry">
            <mxPoint x="200" y="280" as="sourcePoint" />
            <mxPoint x="200" y="320" as="targetPoint" />
          </mxGeometry>
        </mxCell>
        <mxCell id="pR2gU65df5QwyOfCK6Qe-18" value="Event: SpanStart" style="edgeLabel;html=1;align=center;verticalAlign=middle;resizable=0;points=[];fontFamily=Times New Roman;fontSize=10;" vertex="1" connectable="0" parent="pR2gU65df5QwyOfCK6Qe-17">
          <mxGeometry x="-0.3929" relative="1" as="geometry">
            <mxPoint x="44" y="-12" as="offset" />
          </mxGeometry>
        </mxCell>
        <mxCell id="pR2gU65df5QwyOfCK6Qe-19" value="" style="endArrow=classic;html=1;rounded=0;startArrow=oval;startFill=1;fontFamily=Times New Roman;fontSize=10;" edge="1" parent="1">
          <mxGeometry width="50" height="50" relative="1" as="geometry">
            <mxPoint x="120" y="240" as="sourcePoint" />
            <mxPoint x="120" y="280" as="targetPoint" />
          </mxGeometry>
        </mxCell>
        <mxCell id="pR2gU65df5QwyOfCK6Qe-24" value="" style="endArrow=classic;html=1;rounded=0;startArrow=oval;startFill=1;fontFamily=Times New Roman;fontSize=10;" edge="1" parent="1">
          <mxGeometry width="50" height="50" relative="1" as="geometry">
            <mxPoint x="120" y="280" as="sourcePoint" />
            <mxPoint x="120" y="320" as="targetPoint" />
          </mxGeometry>
        </mxCell>
        <mxCell id="pR2gU65df5QwyOfCK6Qe-25" value="Event: Log" style="edgeLabel;html=1;align=center;verticalAlign=middle;resizable=0;points=[];fontFamily=Times New Roman;fontSize=10;" vertex="1" connectable="0" parent="pR2gU65df5QwyOfCK6Qe-24">
          <mxGeometry x="-0.3929" relative="1" as="geometry">
            <mxPoint x="32" y="-12" as="offset" />
          </mxGeometry>
        </mxCell>
        <mxCell id="pR2gU65df5QwyOfCK6Qe-26" value="Event: SpanEnd" style="edgeLabel;html=1;align=center;verticalAlign=middle;resizable=0;points=[];fontFamily=Times New Roman;fontSize=10;" vertex="1" connectable="0" parent="pR2gU65df5QwyOfCK6Qe-24">
          <mxGeometry x="-0.075" relative="1" as="geometry">
            <mxPoint x="42" y="20" as="offset" />
          </mxGeometry>
        </mxCell>
        <mxCell id="pR2gU65df5QwyOfCK6Qe-30" value="" style="endArrow=classic;html=1;rounded=0;startArrow=oval;startFill=1;fontFamily=Times New Roman;fontSize=10;edgeStyle=orthogonalEdgeStyle;curved=1;" edge="1" parent="1">
          <mxGeometry width="50" height="50" relative="1" as="geometry">
            <mxPoint x="120" y="320" as="sourcePoint" />
            <mxPoint x="80" y="360" as="targetPoint" />
            <Array as="points">
              <mxPoint x="120" y="340" />
              <mxPoint x="80" y="340" />
            </Array>
          </mxGeometry>
        </mxCell>
        <mxCell id="pR2gU65df5QwyOfCK6Qe-31" value="Event: Log" style="edgeLabel;html=1;align=center;verticalAlign=middle;resizable=0;points=[];fontFamily=Times New Roman;fontSize=10;" vertex="1" connectable="0" parent="pR2gU65df5QwyOfCK6Qe-30">
          <mxGeometry x="-0.3929" relative="1" as="geometry">
            <mxPoint x="-3" y="20" as="offset" />
          </mxGeometry>
        </mxCell>
        <mxCell id="pR2gU65df5QwyOfCK6Qe-33" value="" style="endArrow=classic;html=1;rounded=0;startArrow=oval;startFill=1;fontFamily=Times New Roman;fontSize=10;" edge="1" parent="1">
          <mxGeometry width="50" height="50" relative="1" as="geometry">
            <mxPoint x="80" y="360" as="sourcePoint" />
            <mxPoint x="80" y="400" as="targetPoint" />
          </mxGeometry>
        </mxCell>
        <mxCell id="pR2gU65df5QwyOfCK6Qe-35" value="Event: SpanStart" style="edgeLabel;html=1;align=center;verticalAlign=middle;resizable=0;points=[];fontFamily=Times New Roman;fontSize=10;" vertex="1" connectable="0" parent="pR2gU65df5QwyOfCK6Qe-33">
          <mxGeometry x="-0.075" relative="1" as="geometry">
            <mxPoint x="44" y="21" as="offset" />
          </mxGeometry>
        </mxCell>
        <mxCell id="pR2gU65df5QwyOfCK6Qe-37" value="" style="endArrow=classic;html=1;rounded=0;startArrow=oval;startFill=1;fontFamily=Times New Roman;fontSize=10;" edge="1" parent="1">
          <mxGeometry width="50" height="50" relative="1" as="geometry">
            <mxPoint x="200" y="320" as="sourcePoint" />
            <mxPoint x="200" y="360" as="targetPoint" />
          </mxGeometry>
        </mxCell>
        <mxCell id="pR2gU65df5QwyOfCK6Qe-38" value="Event: Log" style="edgeLabel;html=1;align=center;verticalAlign=middle;resizable=0;points=[];fontFamily=Times New Roman;fontSize=10;" vertex="1" connectable="0" parent="pR2gU65df5QwyOfCK6Qe-37">
          <mxGeometry x="-0.3929" relative="1" as="geometry">
            <mxPoint x="32" y="-12" as="offset" />
          </mxGeometry>
        </mxCell>
        <mxCell id="pR2gU65df5QwyOfCK6Qe-39" value="" style="endArrow=classic;html=1;rounded=0;startArrow=oval;startFill=1;fontFamily=Times New Roman;fontSize=10;" edge="1" parent="1">
          <mxGeometry width="50" height="50" relative="1" as="geometry">
            <mxPoint x="200" y="360" as="sourcePoint" />
            <mxPoint x="200" y="400" as="targetPoint" />
          </mxGeometry>
        </mxCell>
        <mxCell id="pR2gU65df5QwyOfCK6Qe-40" value="Event: Log" style="edgeLabel;html=1;align=center;verticalAlign=middle;resizable=0;points=[];fontFamily=Times New Roman;fontSize=10;" vertex="1" connectable="0" parent="pR2gU65df5QwyOfCK6Qe-39">
          <mxGeometry x="-0.3929" relative="1" as="geometry">
            <mxPoint x="32" y="-12" as="offset" />
          </mxGeometry>
        </mxCell>
        <mxCell id="pR2gU65df5QwyOfCK6Qe-41" value="" style="endArrow=classic;html=1;rounded=0;startArrow=oval;startFill=1;fontFamily=Times New Roman;fontSize=10;" edge="1" parent="1">
          <mxGeometry width="50" height="50" relative="1" as="geometry">
            <mxPoint x="200" y="400" as="sourcePoint" />
            <mxPoint x="200" y="440" as="targetPoint" />
          </mxGeometry>
        </mxCell>
        <mxCell id="pR2gU65df5QwyOfCK6Qe-42" value="Event: Log" style="edgeLabel;html=1;align=center;verticalAlign=middle;resizable=0;points=[];fontFamily=Times New Roman;fontSize=10;" vertex="1" connectable="0" parent="pR2gU65df5QwyOfCK6Qe-41">
          <mxGeometry x="-0.3929" relative="1" as="geometry">
            <mxPoint x="32" y="-12" as="offset" />
          </mxGeometry>
        </mxCell>
        <mxCell id="pR2gU65df5QwyOfCK6Qe-44" value="Event: SpanStart" style="edgeLabel;html=1;align=center;verticalAlign=middle;resizable=0;points=[];fontSize=10;fontFamily=Times New Roman;" vertex="1" connectable="0" parent="pR2gU65df5QwyOfCK6Qe-41">
          <mxGeometry x="0.119" y="1" relative="1" as="geometry">
            <mxPoint x="43" y="17" as="offset" />
          </mxGeometry>
        </mxCell>
      </root>
    </mxGraphModel>
  </diagram>
</mxfile>
